<svg width="120" height="73" viewBox="0 0 120 73" fill="none" xmlns="http://www.w3.org/2000/svg">
<path fill-rule="evenodd" clip-rule="evenodd" d="M24.7705 43.1299L22.6156 45.4379V43.1299H21.4297V48.8042H22.6156V46.8788L23.1639 46.3177L24.9108 48.8042H26.4409L23.9927 45.4506L26.3006 43.1299H24.7705Z" fill="black"/>
<path d="M30.5062 43.1299H29.3203V48.7915H30.5062V43.1299Z" fill="black"/>
<path fill-rule="evenodd" clip-rule="evenodd" d="M37.4178 43.1299V47.0828H37.3923L35.1481 43.1299H33.8984V48.8042H35.0078V44.7621H35.0205L37.3285 48.8042H38.5144V43.1299H37.4178Z" fill="black"/>
<path fill-rule="evenodd" clip-rule="evenodd" d="M44.5051 43.001C45.2575 43.001 47.2211 43.3198 47.2211 45.9848C47.2211 48.6498 45.2447 48.9686 44.5051 48.9686C43.7528 48.9686 41.7891 48.6498 41.7891 45.9848C41.7764 43.3198 43.7528 43.001 44.5051 43.001ZM44.5051 47.9612C45.1427 47.9612 46.048 47.5659 46.048 45.9848C46.048 44.4036 45.1427 44.0083 44.5051 44.0083C43.8676 44.0083 42.9622 44.4036 42.9622 45.9848C42.9622 47.5659 43.8676 47.9612 44.5051 47.9612Z" fill="black"/>
<path fill-rule="evenodd" clip-rule="evenodd" d="M51.0311 44.8682C50.4191 44.8682 49.9219 45.3654 49.9219 45.9774C49.9219 46.6022 50.4064 47.0867 51.0311 47.0867C51.6558 47.0867 52.1403 46.6022 52.1403 45.9774C52.1403 45.3654 51.6431 44.8682 51.0311 44.8682Z" fill="black"/>
<path fill-rule="evenodd" clip-rule="evenodd" d="M58.7152 45.0157C58.6259 44.6714 58.4347 44.0338 57.4656 44.0338C56.8918 44.0338 56.0629 44.4164 56.0629 46.0103C56.0629 47.0304 56.471 47.9485 57.4656 47.9485C58.1159 47.9485 58.5749 47.5787 58.7152 46.8774H59.901C59.6715 48.1143 58.8554 48.9686 57.4401 48.9686C55.9354 48.9686 54.8516 47.9485 54.8516 45.9975C54.8516 44.0211 55.9992 43.001 57.4528 43.001C59.1487 43.001 59.8373 44.1741 59.901 45.0029H58.7152V45.0157Z" fill="black"/>
<path d="M64.2405 43.1299H63.0547V48.7915H64.2405V43.1299Z" fill="black"/>
<path fill-rule="evenodd" clip-rule="evenodd" d="M71.1628 43.1299V47.0828H71.1501L68.8931 43.1299H67.6562V48.8042H68.7529V44.7621H68.7784L71.0863 48.8042H72.2722V43.1299H71.1628Z" fill="black"/>
<path fill-rule="evenodd" clip-rule="evenodd" d="M75.7891 43.1299V48.8042H80.099V47.7969H76.9494V46.3305H79.7164V45.3231H76.9494V44.1372H79.9587V43.1299H75.7891Z" fill="black"/>
<path fill-rule="evenodd" clip-rule="evenodd" d="M87.1259 43.1299L86.1186 47.6056H86.1058L85.073 43.1299H83.3516V48.8042H84.4482V44.0607H84.4609L85.5065 48.8042H86.6669L87.7125 44.0607H87.738V48.8042H88.8346V43.1299H87.1259Z" fill="black"/>
<path fill-rule="evenodd" clip-rule="evenodd" d="M94.584 44.4178H94.5968L95.2981 46.662H93.8572L94.584 44.4178ZM93.9209 43.1299L91.9062 48.7915H93.1559L93.5512 47.6183H95.6424L95.9994 48.7915H97.2873L95.2853 43.1299H93.9209Z" fill="black"/>
<path fill-rule="evenodd" clip-rule="evenodd" d="M88.247 24.2148H83.2993L82.3047 39.1089H94.1C94.1765 38.8794 94.8651 36.0357 94.8651 36.0102C94.8396 36.0357 89.0121 36.4693 87.3926 36.6096C87.6731 32.2995 87.9537 28.5122 88.247 24.2148Z" fill="#FF8000"/>
<path fill-rule="evenodd" clip-rule="evenodd" d="M72.8876 24.2148H67.9399L66.9453 39.1089H78.7406C78.8171 38.8794 79.5057 36.0357 79.5057 36.0102C79.4802 36.0357 73.6654 36.4693 72.0332 36.6096C72.3265 32.2995 72.6071 28.5122 72.8876 24.2148Z" fill="#FF8000"/>
<path fill-rule="evenodd" clip-rule="evenodd" d="M11.4631 36.5203L17.4309 36.5841C17.4309 36.5841 17.9154 38.3438 18.1705 39.1089H23.5389L18.5658 24.2148H13.9752L7 39.1089H10.4812C10.5832 38.8539 11.4631 36.5203 11.4631 36.5203ZM14.8933 27.237L16.6658 33.7914L12.2282 34.4928L14.8933 27.237Z" fill="#FF8000"/>
<path fill-rule="evenodd" clip-rule="evenodd" d="M27.0234 39.1127H31.9456L32.1624 35.8227C36.8422 35.8227 43.1926 33.5784 43.1926 28.5414C43.1926 26.2844 40.6422 24.2568 36.7147 24.2568H28.0181L27.0234 39.1127ZM32.3281 33.3999L32.7744 26.7307L34.1644 26.7434C36.9697 26.7562 37.9644 27.7508 37.9644 29.026C37.9644 31.3086 34.9932 33.3999 32.3281 33.3999Z" fill="#FF8000"/>
<path fill-rule="evenodd" clip-rule="evenodd" d="M54.1232 39.604C59.8232 39.604 63.0621 35.5871 63.3171 31.7106C63.5722 27.9233 60.8178 24.2891 55.105 24.2891C49.4561 24.2891 46.1916 27.8468 45.9366 31.7106C45.6816 35.5616 48.7547 39.604 54.1232 39.604ZM54.2252 37.1684C51.5856 37.1684 51.05 34.414 51.2158 31.7616C51.3688 29.5683 52.2487 26.7247 54.85 26.7247C57.7574 26.7247 58.1527 29.7723 58.0252 31.6978C57.8594 34.4395 56.8138 37.1684 54.2252 37.1684Z" fill="#FF8000"/>
<path fill-rule="evenodd" clip-rule="evenodd" d="M103.432 39.3149C109.132 39.3149 112.371 35.2981 112.626 31.4215C112.881 27.6343 110.127 24 104.427 24C98.7778 24 95.5134 27.5577 95.2584 31.4215C94.9906 35.2726 98.0637 39.3149 103.432 39.3149ZM103.534 36.8793C100.895 36.8793 100.346 34.1249 100.525 31.4725C100.665 29.2792 101.558 26.4356 104.159 26.4356C107.066 26.4356 107.474 29.4833 107.347 31.4088C107.168 34.1632 106.123 36.8793 103.534 36.8793Z" fill="#FF8000"/>
</svg>

