<svg width="84" height="84" viewBox="0 0 84 84" fill="none" xmlns="http://www.w3.org/2000/svg">
<foreignObject x="-44" y="-44" width="164" height="164"><div xmlns="http://www.w3.org/1999/xhtml" style="backdrop-filter:blur(25px);clip-path:url(#bgblur_0_2138_993_clip_path);height:100%;width:100%"></div></foreignObject><g filter="url(#filter0_d_2138_993)" data-figma-bg-blur-radius="50">
<circle cx="38" cy="38" r="32" fill="white" fill-opacity="0.5" shape-rendering="crispEdges"/>
</g>
<path d="M38.0026 21.333V22.9997M23.0026 37.9997H21.3359M27.1693 27.1663L26.1691 26.1662M48.8359 27.1663L49.8364 26.1662M54.6693 37.9997H53.0026M34.6693 40.4997H41.3359M38.0026 40.4997V48.833M43.8359 46.1229C46.3594 44.3076 48.0026 41.3456 48.0026 37.9997C48.0026 32.4768 43.5255 27.9997 38.0026 27.9997C32.4798 27.9997 28.0026 32.4768 28.0026 37.9997C28.0026 41.3456 29.6458 44.3076 32.1693 46.1229V49.333C32.1693 51.1998 32.1693 52.1333 32.5326 52.8463C32.8522 53.4735 33.3621 53.9835 33.9893 54.303C34.7023 54.6663 35.6358 54.6663 37.5026 54.6663H38.5026C40.3694 54.6663 41.3029 54.6663 42.0159 54.303C42.6431 53.9835 43.153 53.4735 43.4726 52.8463C43.8359 52.1333 43.8359 51.1998 43.8359 49.333V46.1229Z" stroke="#4C66D0" stroke-width="2" stroke-linecap="round" stroke-linejoin="round"/>
<defs>
<filter id="filter0_d_2138_993" x="-44" y="-44" width="164" height="164" filterUnits="userSpaceOnUse" color-interpolation-filters="sRGB">
<feFlood flood-opacity="0" result="BackgroundImageFix"/>
<feColorMatrix in="SourceAlpha" type="matrix" values="0 0 0 0 0 0 0 0 0 0 0 0 0 0 0 0 0 0 127 0" result="hardAlpha"/>
<feOffset dx="4" dy="4"/>
<feGaussianBlur stdDeviation="5"/>
<feComposite in2="hardAlpha" operator="out"/>
<feColorMatrix type="matrix" values="0 0 0 0 0.298039 0 0 0 0 0.4 0 0 0 0 0.815686 0 0 0 0.25 0"/>
<feBlend mode="normal" in2="BackgroundImageFix" result="effect1_dropShadow_2138_993"/>
<feBlend mode="normal" in="SourceGraphic" in2="effect1_dropShadow_2138_993" result="shape"/>
</filter>
<clipPath id="bgblur_0_2138_993_clip_path" transform="translate(44 44)"><circle cx="38" cy="38" r="32"/>
</clipPath></defs>
</svg>

