<svg width="128" height="23" viewBox="0 0 128 23" fill="none" xmlns="http://www.w3.org/2000/svg">
<path d="M107.094 22.24V0.480001H112.918V8.032L121.654 0L126.166 3.264L118.774 10.176L127.574 22.24H120.182L114.614 14.112L112.918 15.712V22.24H107.094Z" fill="white"/>
<path d="M82.3516 11.4562C82.3516 8.10689 83.3009 5.36556 85.1996 3.23223C87.0982 1.09889 89.6796 0.0322266 92.9436 0.0322266C96.4849 0.0322266 99.1409 1.12023 100.912 3.29623C102.682 5.47223 103.568 8.11756 103.568 11.2322C103.568 14.6029 102.629 17.3549 100.752 19.4882C98.8742 21.6216 96.2716 22.6882 92.9436 22.6882C89.4662 22.6882 86.8316 21.6002 85.0396 19.4242C83.2476 17.2269 82.3516 14.5709 82.3516 11.4562ZM88.3356 11.4242C88.3356 13.2589 88.6876 14.7842 89.3916 16.0002C90.0956 17.2162 91.2689 17.8242 92.9116 17.8242C94.4049 17.8242 95.5569 17.2802 96.3676 16.1922C97.1782 15.0829 97.5836 13.4296 97.5836 11.2322C97.5836 9.41889 97.2209 7.91489 96.4956 6.72023C95.7916 5.50423 94.6289 4.89622 93.0076 4.89622C91.5569 4.89622 90.4156 5.49356 89.5836 6.68822C88.7516 7.88289 88.3356 9.46156 88.3356 11.4242Z" fill="white"/>
<path d="M58.5703 11.4562C58.5703 8.10689 59.5196 5.36556 61.4183 3.23223C63.317 1.09889 65.8983 0.0322266 69.1623 0.0322266C72.7036 0.0322266 75.3596 1.12023 77.1303 3.29623C78.901 5.47223 79.7863 8.11756 79.7863 11.2322C79.7863 14.6029 78.8476 17.3549 76.9703 19.4882C75.093 21.6216 72.4903 22.6882 69.1623 22.6882C65.685 22.6882 63.0503 21.6002 61.2583 19.4242C59.4663 17.2269 58.5703 14.5709 58.5703 11.4562ZM64.5543 11.4242C64.5543 13.2589 64.9063 14.7842 65.6103 16.0002C66.3143 17.2162 67.4876 17.8242 69.1303 17.8242C70.6236 17.8242 71.7756 17.2802 72.5863 16.1922C73.397 15.0829 73.8023 13.4296 73.8023 11.2322C73.8023 9.41889 73.4397 7.91489 72.7143 6.72023C72.0103 5.50423 70.8477 4.89622 69.2263 4.89622C67.7757 4.89622 66.6343 5.49356 65.8023 6.68822C64.9703 7.88289 64.5543 9.46156 64.5543 11.4242Z" fill="white"/>
<path d="M56.9598 22.2405H41.3438V0.480469H47.1677V17.6645H56.4157L56.9598 22.2405Z" fill="white"/>
<path d="M22.5312 22.2405V0.480469H36.9633L37.5073 5.05647H28.3552V9.02447H35.0432L35.5873 13.6005H28.3552V17.6645H37.9233L38.4673 22.2405H22.5312Z" fill="white"/>
<path d="M8.96 5.05647H5.824V10.8165H9.024C9.92 10.8165 10.656 10.5498 11.232 10.0165C11.808 9.4618 12.096 8.7578 12.096 7.90447C12.096 6.94447 11.8187 6.2298 11.264 5.76047C10.7093 5.29114 9.94133 5.05647 8.96 5.05647ZM0 22.2405V0.480469H9.152C11.5627 0.480469 13.6533 1.06714 15.424 2.24047C17.216 3.39247 18.112 5.28047 18.112 7.90447C18.112 9.22714 17.8347 10.3685 17.28 11.3285C16.7467 12.2885 16.0427 13.0671 15.168 13.6645L19.968 22.2405H13.216L9.696 15.3925H5.824V22.2405H0Z" fill="white"/>
</svg>

