<svg width="120" height="74" viewBox="0 0 120 74" fill="none" xmlns="http://www.w3.org/2000/svg">
<path d="M43.7769 48.7304H43.0703V54.3978H43.7769V48.7304Z" fill="#AC162C"/>
<path d="M47.8978 49.3254V48.7304H44.7666V49.3774H47.0946L44.603 53.8102V54.3978H47.9499V53.7507H45.3988L47.8978 49.3254Z" fill="#AC162C"/>
<path d="M51.4417 52.6797V52.7838C51.4119 53.5053 51.1814 53.8251 50.4822 53.8251C49.5674 53.8251 49.441 53.3045 49.441 52.4491V50.6716C49.441 49.8386 49.5823 49.3031 50.4822 49.3031C51.1293 49.3031 51.4268 49.6452 51.4268 50.3294V50.4113H52.1706V50.3443C52.1706 49.2287 51.6425 48.6411 50.4822 48.6411C49.1435 48.6411 48.7047 49.3551 48.7047 50.6716V52.4789C48.7047 53.773 49.1286 54.487 50.4822 54.487C51.6946 54.487 52.1557 53.8846 52.178 52.7764V52.6797H51.4417Z" fill="#AC162C"/>
<path d="M53.7856 48.7304H53.0791V54.3978H53.7856V48.7304Z" fill="#AC162C"/>
<path d="M57.728 53.7582H55.6232V48.7304H54.9166V54.3978H57.728V53.7582Z" fill="#AC162C"/>
<path d="M61.6035 54.3978H62.377L60.711 48.7304H59.8557L58.1897 54.3978H58.9186L59.35 52.8061H61.1647L61.6035 54.3978ZM60.2648 49.4816L60.9937 52.1591H59.5285L60.2648 49.4816Z" fill="#AC162C"/>
<path d="M64.397 51.7575C65.2672 52.0103 65.5721 52.2706 65.5721 52.8731C65.5721 53.6094 65.2523 53.8548 64.5532 53.8548C63.8838 53.8548 63.5491 53.5425 63.5268 52.9921H62.8351C62.8425 53.8548 63.378 54.487 64.5234 54.487C65.6762 54.487 66.2787 53.9962 66.2787 52.8656C66.2787 51.8393 65.6242 51.4228 64.6424 51.1476C63.9135 50.9393 63.6309 50.7013 63.6309 50.1286C63.6309 49.5336 63.9433 49.2659 64.5606 49.2659C65.0961 49.2659 65.4829 49.5039 65.5349 50.0914H66.234C66.1522 48.9981 65.4382 48.6411 64.5457 48.6411C63.5045 48.6411 62.9392 49.1692 62.9392 50.1509C62.9392 51.1699 63.5193 51.5046 64.397 51.7575Z" fill="#AC162C"/>
<path d="M70.7404 51.4897V52.1145H71.871V52.6276C71.871 53.4458 71.633 53.8623 70.7702 53.8623C69.8405 53.8623 69.6248 53.4904 69.6248 52.4938V50.6641C69.6248 49.7047 69.8851 49.2807 70.7702 49.2807C71.5511 49.2807 71.8486 49.5783 71.8486 50.3369V50.4038H72.5627V50.3518C72.5552 49.2287 72.042 48.6411 70.7702 48.6411C69.4538 48.6411 68.9182 49.2882 68.9182 50.6641V52.4938C68.9182 53.8102 69.3571 54.487 70.7479 54.487C72.1313 54.487 72.5552 53.84 72.5552 52.5756V51.4897H70.7404Z" fill="#AC162C"/>
<path d="M76.4133 54.3978H77.1868L75.5208 48.7304H74.6654L72.9994 54.3978H73.7283L74.1597 52.8061H75.9745L76.4133 54.3978ZM75.0745 49.4816L75.8034 52.1591H74.3382L75.0745 49.4816Z" fill="#AC162C"/>
<path d="M77.8754 54.3978H78.582V52.0252H79.2662C79.348 52.0252 79.5191 52.0252 79.586 52.0178L80.4339 54.3978H81.2223L80.2628 51.8765C80.7909 51.6905 81.0438 51.2889 81.0438 50.4931V50.2774C81.0438 49.1097 80.419 48.7304 79.3331 48.7304H77.8754V54.3978ZM80.3447 50.4484C80.3447 51.1773 80.1364 51.4153 79.3926 51.4153H78.582V49.3551H79.3331C79.9951 49.3551 80.3447 49.5262 80.3447 50.3294V50.4484Z" fill="#AC162C"/>
<path d="M83.2233 51.7575C84.0935 52.0103 84.3984 52.2706 84.3984 52.8731C84.3984 53.6094 84.0786 53.8548 83.3795 53.8548C82.7101 53.8548 82.3754 53.5425 82.3531 52.9921H81.6614C81.6688 53.8548 82.2043 54.487 83.3497 54.487C84.5025 54.487 85.105 53.9962 85.105 52.8656C85.105 51.8393 84.4505 51.4228 83.4687 51.1476C82.7398 50.9393 82.4572 50.7013 82.4572 50.1286C82.4572 49.5336 82.7696 49.2659 83.3869 49.2659C83.9224 49.2659 84.3092 49.5039 84.3612 50.0914H85.0604C84.9785 48.9981 84.2645 48.6411 83.372 48.6411C82.3308 48.6411 81.7655 49.1692 81.7655 50.1509C81.7655 51.1699 82.3456 51.5046 83.2233 51.7575ZM82.1671 47.2949L83.1415 48.2321H83.6323L84.6067 47.2949H83.915L83.3869 47.8156L82.8588 47.2949H82.1671Z" fill="#AC162C"/>
<path d="M88.9206 54.3978H89.6941L88.028 48.7304H87.1727L85.5067 54.3978H86.2356L86.667 52.8061H88.4817L88.9206 54.3978ZM87.5818 49.4816L88.3107 52.1591H86.8455L87.5818 49.4816Z" fill="#AC162C"/>
<path d="M91.714 51.7575C92.5842 52.0103 92.8891 52.2706 92.8891 52.8731C92.8891 53.6094 92.5693 53.8548 91.8702 53.8548C91.2008 53.8548 90.8661 53.5425 90.8438 52.9921H90.1521C90.1596 53.8548 90.6951 54.487 91.8404 54.487C92.9933 54.487 93.5957 53.9962 93.5957 52.8656C93.5957 51.8393 92.9412 51.4228 91.9594 51.1476C91.2306 50.9393 90.9479 50.7013 90.9479 50.1286C90.9479 49.5336 91.2603 49.2659 91.8776 49.2659C92.4131 49.2659 92.7999 49.5039 92.8519 50.0914H93.5511C93.4693 48.9981 92.7553 48.6411 91.8628 48.6411C90.8215 48.6411 90.2562 49.1692 90.2562 50.1509C90.2562 51.1699 90.8364 51.5046 91.714 51.7575Z" fill="#AC162C"/>
<path d="M97.6335 51.7575C98.5037 52.0103 98.8087 52.2706 98.8087 52.8731C98.8087 53.6094 98.4889 53.8548 97.7897 53.8548C97.1203 53.8548 96.7857 53.5425 96.7633 52.9921H96.0717C96.0791 53.8548 96.6146 54.487 97.76 54.487C98.9128 54.487 99.5152 53.9962 99.5152 52.8656C99.5152 51.8393 98.8607 51.4228 97.879 51.1476C97.1501 50.9393 96.8675 50.7013 96.8675 50.1286C96.8675 49.5336 97.1798 49.2659 97.7972 49.2659C98.3327 49.2659 98.7194 49.5039 98.7715 50.0914H99.4706C99.3888 48.9981 98.6748 48.6411 97.7823 48.6411C96.741 48.6411 96.1758 49.1692 96.1758 50.1509C96.1758 51.1699 96.7559 51.5046 97.6335 51.7575Z" fill="#AC162C"/>
<path d="M102.002 54.3978V49.3774H103.378V48.7304H99.927V49.3774H101.296V54.3978H102.002Z" fill="#AC162C"/>
<path d="M106.57 54.3978H107.344L105.678 48.7304H104.822L103.156 54.3978H103.885L104.317 52.8061H106.131L106.57 54.3978ZM105.231 49.4816L105.96 52.1591H104.495L105.231 49.4816ZM104.332 47.4883V48.0164H106.146V47.4883H104.332Z" fill="#AC162C"/>
<path d="M109.364 51.7575C110.234 52.0103 110.539 52.2706 110.539 52.8731C110.539 53.6094 110.219 53.8548 109.52 53.8548C108.85 53.8548 108.516 53.5425 108.493 52.9921H107.802C107.809 53.8548 108.345 54.487 109.49 54.487C110.643 54.487 111.245 53.9962 111.245 52.8656C111.245 51.8393 110.591 51.4228 109.609 51.1476C108.88 50.9393 108.598 50.7013 108.598 50.1286C108.598 49.5336 108.91 49.2659 109.527 49.2659C110.063 49.2659 110.45 49.5039 110.502 50.0914H111.201C111.119 48.9981 110.405 48.6411 109.512 48.6411C108.471 48.6411 107.906 49.1692 107.906 50.1509C107.906 51.1699 108.486 51.5046 109.364 51.7575Z" fill="#AC162C"/>
<path d="M113.732 54.3978V49.3774H115.108V48.7304H111.657V49.3774H113.026V54.3978H113.732Z" fill="#AC162C"/>
<path d="M117.055 51.7575C117.926 52.0103 118.231 52.2706 118.231 52.8731C118.231 53.6094 117.911 53.8548 117.212 53.8548C116.542 53.8548 116.208 53.5425 116.185 52.9921H115.494C115.501 53.8548 116.036 54.487 117.182 54.487C118.335 54.487 118.937 53.9962 118.937 52.8656C118.937 51.8393 118.283 51.4228 117.301 51.1476C116.572 50.9393 116.289 50.7013 116.289 50.1286C116.289 49.5336 116.602 49.2659 117.219 49.2659C117.755 49.2659 118.141 49.5039 118.193 50.0914H118.892C118.811 48.9981 118.097 48.6411 117.204 48.6411C116.163 48.6411 115.598 49.1692 115.598 50.1509C115.598 51.1699 116.178 51.5046 117.055 51.7575Z" fill="#AC162C"/>
<path d="M43.1562 32.6051V43.7163C43.1562 44.0022 43.3605 44.2065 43.6464 44.2065H45.4438C45.7298 44.2065 45.9749 43.9614 45.9749 43.6754V36.3225C45.9749 36.0365 46.22 35.7914 46.5059 35.7914H48.0582C48.3442 35.7914 48.5893 35.5463 48.5893 35.2604V33.7081C48.5893 33.4221 48.385 33.2179 48.0991 33.2179H45.934V32.6051C45.934 31.3796 46.7919 30.6035 48.3033 30.6852C48.5893 30.6852 48.8344 30.4809 48.8344 30.195V28.7244C48.8344 28.4793 48.6301 28.2342 48.385 28.2342C48.1808 28.2342 47.9765 28.1934 47.7723 28.1934C44.7494 28.2751 43.1562 30.1133 43.1562 32.6051Z" fill="#AC162C"/>
<path d="M50.1641 39.7123V36.812C50.1641 33.6665 51.6755 32.1143 54.8209 32.1143C58.0072 32.1143 59.5187 33.544 59.5187 36.812V39.7123C59.5187 42.9395 58.0072 44.41 54.8618 44.41C51.6755 44.41 50.1641 42.9395 50.1641 39.7123ZM56.7 39.5898V36.9754C56.7 35.5048 56.2915 34.6469 54.8209 34.6469C53.3503 34.6469 52.9827 35.5048 52.9827 36.9754V39.5898C52.9827 41.0604 53.3912 41.9182 54.8618 41.9182C56.2915 41.9182 56.7 41.0604 56.7 39.5898Z" fill="#00263D"/>
<path d="M67.8192 34.5231C67.8192 34.809 67.5741 35.0541 67.2882 35.0133C65.7359 34.9724 64.5512 35.7077 64.5921 37.3009V43.6734C64.5921 43.9594 64.347 44.2045 64.061 44.2045H62.2636C61.9777 44.2045 61.7734 44.0002 61.7734 43.7143V32.6848C61.7734 32.3989 62.0185 32.1538 62.3045 32.1538H63.8976C64.1427 32.1538 64.347 32.358 64.3878 32.6031L64.4695 33.4201C64.9189 32.6848 66.0627 32.0312 67.329 32.0312C67.615 32.0312 67.8192 32.2763 67.8192 32.5214V34.5231Z" fill="#00263D"/>
<path d="M77.9972 40.5293C78.2832 40.5293 78.5283 40.7744 78.4874 41.0604C78.2832 43.2254 76.7717 44.2466 73.8305 44.2466C70.6443 44.2466 69.1328 42.8169 69.1328 39.5489V36.812C69.1328 33.7891 70.6443 32.1143 73.7897 32.1143C76.976 32.1143 78.4874 33.544 78.4874 36.812V38.6911C78.4874 38.977 78.2423 39.2221 77.9564 39.2221H71.9514V39.5081C71.9514 41.428 72.7276 41.7957 73.8714 41.7957C74.9743 41.7957 75.5462 41.4689 75.7096 40.897C75.7505 40.6927 75.9547 40.5293 76.159 40.5293H77.9972ZM72.4825 36.9345H75.2603C75.5462 36.9345 75.7913 36.6894 75.7913 36.4035C75.7096 35.2597 75.3011 34.6061 73.9122 34.6061C72.4825 34.6061 72.074 35.3005 71.9923 36.4443C71.9923 36.6894 72.1965 36.9345 72.4825 36.9345Z" fill="#00263D"/>
<path d="M89.3055 32.8491L85.915 43.8785C85.8333 44.0828 85.629 44.2462 85.4248 44.2462H83.7091C83.5048 44.2462 83.3006 44.1236 83.2189 43.9194L79.8283 32.8899C79.7466 32.5631 79.9917 32.2363 80.3185 32.2363H82.1976C82.4019 32.2363 82.6061 32.3589 82.6878 32.604L83.6682 35.872C83.8316 36.5256 83.995 37.22 84.1176 37.9144C84.2401 38.4455 85.0163 38.4455 85.098 37.9144C85.2205 37.22 85.3839 36.5256 85.5473 35.872L86.4869 32.6448C86.5686 32.4406 86.7728 32.2772 86.977 32.2772H88.8561C89.1829 32.1955 89.428 32.5223 89.3055 32.8491Z" fill="#00263D"/>
<path d="M99.4972 40.5293C99.7832 40.5293 100.028 40.7744 99.9874 41.0604C99.7832 43.2254 98.2717 44.2466 95.3305 44.2466C92.1443 44.2466 90.6328 42.8169 90.6328 39.5489V36.812C90.6328 33.7891 92.1443 32.1143 95.2897 32.1143C98.476 32.1143 99.9874 33.544 99.9874 36.812V38.6911C99.9874 38.977 99.7423 39.2221 99.4564 39.2221H93.4515V39.5081C93.4515 41.428 94.2276 41.7957 95.3714 41.7957C96.4743 41.7957 97.0462 41.4689 97.2096 40.897C97.2505 40.6927 97.4547 40.5293 97.659 40.5293H99.4972ZM93.9825 36.9345H96.7603C97.0462 36.9345 97.2913 36.6894 97.2913 36.4035C97.2096 35.2597 96.8011 34.6061 95.4122 34.6061C93.9825 34.6061 93.574 35.3005 93.4923 36.4443C93.4923 36.6894 93.6966 36.9345 93.9825 36.9345Z" fill="#00263D"/>
<path d="M108.344 34.5231C108.344 34.809 108.099 35.0541 107.813 35.0133C106.261 34.9724 105.076 35.7077 105.076 37.3009V43.6734C105.076 43.9594 104.831 44.2045 104.545 44.2045H102.748C102.462 44.2045 102.258 44.0002 102.258 43.7143V32.6848C102.258 32.3989 102.503 32.1538 102.789 32.1538H104.382C104.627 32.1538 104.831 32.358 104.872 32.6031L104.954 33.4201C105.403 32.6848 106.506 32.0312 107.813 32.0312C108.099 32.0312 108.304 32.2763 108.304 32.5214L108.344 34.5231Z" fill="#00263D"/>
<path d="M116.509 35.952C116.263 35.952 116.1 35.7886 116.018 35.5844C115.855 34.9308 115.201 34.6448 114.466 34.6448C113.404 34.6448 112.75 35.0533 112.75 35.9112C112.75 37.2184 114.139 37.055 115.773 37.2184C117.407 37.3818 119 38.3622 119 40.4863C119 43.1007 116.958 44.2445 114.343 44.2445C111.729 44.2445 110.054 43.019 109.809 41.0582C109.768 40.7723 110.013 40.4863 110.34 40.4863H112.219C112.464 40.4863 112.628 40.6497 112.709 40.854C112.873 41.4667 113.363 41.7935 114.507 41.7935C115.61 41.7935 116.182 41.1808 116.182 40.568C116.182 39.5468 114.834 39.5468 113.404 39.3426C111.647 39.1383 109.932 38.3622 109.932 35.9929C109.932 33.2968 111.852 32.0713 114.466 32.0713C117.162 32.0713 118.551 33.4602 118.796 35.2984C118.837 35.5844 118.592 35.8703 118.265 35.8703H116.509V35.952Z" fill="#00263D"/>
<path d="M24.6112 27.9477C27.5524 27.9477 32.6994 28.0294 34.7011 28.0294V20.7582C34.7011 20.1454 34.2517 19.4918 33.7207 19.2467C33.7207 19.2467 28.5736 17 17.871 17C7.16832 17 1.98039 19.2467 1.98039 19.2467C1.44935 19.4918 1 20.1454 1 20.7582V34.4837C5.08498 34.1978 10.9673 34.6471 13.9085 36.9755C14.6438 36.6079 16.6046 36.2402 17.9118 36.7713C17.1765 37.1389 16.8089 37.4249 16.1961 37.9559C17.6667 37.8742 18.8105 38.7321 18.8105 38.7321C18.8105 38.7321 16.8906 39.3448 16.237 39.7533C16.8906 40.6929 17.3399 41.3056 18.5246 41.3056C18.5246 41.3056 18.4429 42.2043 17.8301 43.0622L17.3808 43.1439L17.1357 43.5115C16.237 43.8792 12.8464 44.8595 11.1307 43.7566C10.8039 44.451 10.0278 46.2076 9.90525 46.5752C9.74185 46.9837 10.0278 47.4331 10.0278 47.4331L10.3546 48.005H9.12911C9.12911 48.005 8.92486 47.719 8.84316 47.5556C8.76146 47.3922 8.72061 47.3105 8.72061 46.8203C8.72061 46.3301 8.72061 45.268 8.72061 45.268C8.59806 45.1455 8.51636 45.0229 8.39381 44.9412C8.14871 45.5131 7.86276 46.2893 7.78106 46.5752C7.61767 47.0246 7.90361 47.4331 7.90361 47.4331L8.23041 48.005H6.92322C6.92322 48.005 6.71897 47.719 6.67812 47.5556C6.59642 47.3922 6.55557 47.3105 6.55557 46.8203C6.55557 46.4935 6.55557 44.9412 6.55557 44.1243C5.37093 44.5327 3.45099 44.6553 1.98039 44.451C4.34968 51.1913 10.5589 56.0115 17.8301 56.0115C26.7354 56.0115 34.0066 48.8628 34.6602 39.7533C32.7811 39.7533 30.4118 40.9788 27.5932 40.9788V44.3693C27.5932 45.1046 27.7566 45.7582 27.8383 46.2484C27.92 46.7386 27.4298 46.7386 27.4298 46.7386L27.3073 48.0458H25.0197C25.0197 47.0654 26.0001 46.4118 26.0001 45.4314C26.0001 42.8988 25.0605 41.2648 25.0605 41.2648C25.0605 41.2648 24.3661 42.0409 24.3252 43.4707C24.2844 44.9412 24.3661 45.7582 24.4069 46.1259C24.4478 46.6978 23.9167 46.7386 23.9167 46.7386L23.6308 48.0458H21.3432C21.3432 47.3514 22.1193 46.4527 22.3644 46.085C22.6095 45.7174 22.9363 42.8579 22.4053 40.3252C19.4233 39.2223 19.7501 33.3399 17.5033 32.6046C17.0948 32.6455 15.951 32.7272 15.2974 32.3595C14.3987 31.8285 12.8056 32.237 12.8056 32.237C12.8056 32.237 11.6209 31.8285 11.2533 30.5213C11.2533 30.5213 11.1716 30.2353 11.7843 29.9085C12.6013 29.4592 13.7451 28.2745 13.9085 27.5801C14.1536 26.518 15.7876 25.6193 15.7876 25.6193C15.7876 25.6193 15.2974 25.0883 14.8072 24.5981C14.1945 23.9036 14.6438 23.4951 14.6438 23.4951L16.237 25.0474C16.237 25.0474 16.8906 24.7206 17.7893 25.4968C18.0344 25.17 17.2582 24.5572 17.0131 24.2713C16.8497 24.1079 16.7272 23.6585 16.9723 23.2909C16.9723 23.2909 17.7484 24.1079 18.402 24.7206C19.0148 25.3334 18.5246 26.1095 18.5246 26.1095C18.5246 26.1095 21.5474 27.9477 24.6112 27.9477Z" fill="#AC162C"/>
</svg>

