<svg width="30" height="30" viewBox="0 0 30 30" fill="none" xmlns="http://www.w3.org/2000/svg">
<circle cx="15" cy="15" r="15" fill="white"/>
<path d="M15 5C18.9946 5 20.9921 5.00027 22.4307 5.95215C23.0729 6.37713 23.6229 6.92711 24.0479 7.56934C24.9997 9.00793 25 11.0054 25 15C25 18.9946 24.9997 20.9921 24.0479 22.4307C23.6229 23.0729 23.0729 23.6229 22.4307 24.0479C20.9921 24.9997 18.9946 25 15 25C11.0054 25 9.00793 24.9997 7.56934 24.0479C6.92711 23.6229 6.37713 23.0729 5.95215 22.4307C5.00027 20.9921 5 18.9946 5 15C5 11.0054 5.00027 9.00793 5.95215 7.56934C6.37713 6.92711 6.92711 6.37713 7.56934 5.95215C9.00793 5.00027 11.0054 5 15 5ZM14.9971 9.82227C12.1381 9.82246 9.82051 12.1401 9.82031 14.999C9.82031 17.8581 12.138 20.1766 14.9971 20.1768C17.8563 20.1768 20.1748 17.8583 20.1748 14.999C20.1746 12.1399 17.8562 9.82227 14.9971 9.82227ZM14.9971 11.5742C16.8888 11.5742 18.4227 13.1073 18.4229 14.999C18.4229 16.8909 16.889 18.4248 14.9971 18.4248C13.1054 18.4246 11.5723 16.8908 11.5723 14.999C11.5725 13.1074 13.1055 11.5744 14.9971 11.5742ZM20.3789 8.3457C19.7072 8.34588 19.1631 8.89077 19.1631 9.5625C19.1631 10.2342 19.7072 10.7791 20.3789 10.7793C21.0507 10.7793 21.5957 10.2343 21.5957 9.5625C21.5957 8.89066 21.0507 8.3457 20.3789 8.3457Z" fill="#12AEA1"/>
</svg>
