<svg width="124" height="36" viewBox="0 0 124 36" fill="none" xmlns="http://www.w3.org/2000/svg">
<path d="M40.392 35.1623H46.4471V9.20603H40.392V35.1623ZM78.2881 8.36835C74.6534 8.36835 71.5569 9.71813 68.9954 12.4143C66.4322 15.1122 65.1523 18.3781 65.1523 22.2071C65.1523 26.0394 66.4306 29.2951 68.9954 31.9778C71.5553 34.6621 74.6501 36 78.2799 36C81.2188 36 83.8099 35.1776 86.0547 33.5378C88.2946 31.893 89.8223 29.6835 90.6362 26.9195H84.2792C83.777 27.9369 82.9992 28.7559 81.9408 29.3613C80.8791 29.9717 79.7157 30.2736 78.4407 30.2736C76.3829 30.2736 74.6648 29.5054 73.2865 27.964C72.4889 27.0619 71.9146 26.0496 71.5766 24.9287H91.2286C91.3763 24.035 91.4501 23.1244 91.4501 22.1986C91.4501 18.3714 90.1669 15.1071 87.607 12.4126C85.0406 9.71644 81.9326 8.36835 78.2881 8.36835ZM71.3994 19.9704C71.7407 18.6291 72.3478 17.4455 73.2241 16.4213C74.5894 14.8697 76.2795 14.0931 78.2979 14.0931C80.313 14.0931 82.0032 14.8697 83.3684 16.4213C84.2742 17.4319 84.8748 18.6138 85.1702 19.9704H71.3994ZM40.392 6.23005H46.4471V0.507018H40.392V6.23005ZM116.996 9.20603H109.976L101.888 21.5898H101.88V0.507018H95.8249V35.164H101.88V22.8362L110.848 35.164H118.101L107.627 21.7526L116.996 9.20603ZM17.5729 26.8092L8.66257 0.507018H0V35.164H6.20443V8.9788L15.0738 35.164H20.0327L28.8824 8.89063V35.164H35.0851V0.507018H26.4226L17.5729 26.8092ZM121.379 0C119.953 0 118.764 1.16326 118.764 2.70466C118.764 4.24607 119.953 5.40933 121.379 5.40933C122.799 5.40933 124 4.24607 124 2.70466C124 1.16326 122.799 0 121.379 0ZM121.379 5.01423C120.178 5.01423 119.226 4.01375 119.226 2.70466C119.226 1.39727 120.178 0.390014 121.379 0.390014C122.579 0.390014 123.536 1.39727 123.536 2.70466C123.536 4.01375 122.579 5.01423 121.379 5.01423ZM122.605 2.01959C122.605 1.41762 122.259 1.12087 121.535 1.12087H120.38V4.28337H120.848V2.92002H121.343L122.174 4.28337H122.674L121.795 2.8861C122.252 2.83862 122.605 2.59783 122.605 2.01959ZM121.324 2.5317H120.849V1.51088H121.458C121.776 1.51088 122.144 1.56514 122.144 1.99585C122.142 2.50796 121.739 2.5317 121.324 2.5317ZM67.8401 0.507018H49.0792V6.46067H55.3542V35.164H61.5602V6.46067H67.8385V0.507018H67.8401Z" fill="#005DAB"/>
</svg>

