<svg width="120" height="74" viewBox="0 0 120 74" fill="none" xmlns="http://www.w3.org/2000/svg">
<path d="M37.7019 26.1497C38.9528 26.1497 41.5669 22.2994 41.5669 19.7807C41.5829 18.7219 40.8933 18 39.6104 18C37.7821 18 37.1888 18.8021 37.1888 18.8021C37.5736 20.1658 37.6859 20.9198 37.6859 22.0909C37.6859 23.4224 37.1406 25.1069 36.8359 25.7968C37.1086 26.0374 37.4133 26.1497 37.7019 26.1497Z" fill="#08A08E"/>
<path d="M46.3679 48.6591C40.962 48.6591 36.31 43.6368 35.6523 42.8987C38.0906 40.4918 40.2882 35.999 43.4002 31.1693C47.7955 24.3498 51.9983 23.9487 51.9983 23.9487C51.8058 22.7934 50.6188 21.3974 48.9666 21.2209C45.0525 20.8198 41.2988 25.3607 38.4114 31.5544C37.4008 33.7366 34.9786 39.1119 32.6847 41.3904C31.9789 41.1818 31.5137 41.1657 31.0966 41.1657C28.5621 41.1657 25.8672 42.3852 25.8672 44.6477C25.8672 45.8992 26.9419 46.7015 28.5782 46.7015C30.5191 46.7015 32.4762 45.4339 32.8932 45.2413C35.6203 47.1187 39.4862 52.9112 46.4481 52.9112C50.9075 52.9112 52.9769 50.8252 53.5223 50.0711C54.1799 49.1405 54.0677 48.1296 52.9929 46.9582C50.699 48.2579 49.0949 48.6591 46.3679 48.6591Z" fill="#08A08E"/>
<path d="M34.8537 24.9114C34.8537 22.4409 33.6827 19.7939 29.9931 19.7939C28.1643 19.7939 26.5281 20.4677 25.0523 21.6067C24.7956 21.1575 24.2502 20.5158 23.4802 20.5158C22.646 20.5158 21.6193 21.1575 20.8012 21.6548C15.0102 25.2002 8 33.141 8 39.7504C8 41.6915 9.07479 45.9587 14.5771 45.9587C25.4693 45.9427 34.8537 31.9539 34.8537 24.9114ZM15.7642 41.8199C14.0958 41.8199 13.2777 40.8573 13.2777 38.8841C13.2777 34.3442 18.5073 28.2161 22.0846 25.2804C21.7637 26.1787 21.6033 27.0771 21.6033 27.9273C21.6033 30.3978 22.646 32.1625 24.587 32.1625C25.4212 32.1625 26.48 31.9539 27.4264 30.8149C27.4264 30.8149 25.2127 29.7241 25.2127 27.0771C25.2127 24.9595 27.0093 23.0505 28.8702 23.0505C30.1214 23.0505 30.8593 23.9168 30.8593 25.2002C30.8754 29.8203 22.4214 41.8199 15.7642 41.8199Z" fill="#08A08E"/>
<path d="M109.138 33.3324C109.957 32.4337 111.529 31.4869 111.529 31.4869C111.497 29.9623 110.598 29.1599 109.62 29.1599C107.919 29.1599 106.716 30.6363 106.347 32.2572C103.747 34.9532 101.309 37.216 96.3507 41.1959C98.3723 37.874 99.6559 36.1087 101.421 33.0275C102.207 31.4708 101.292 30.5721 98.7734 30.3956C98.7734 30.3956 98.4365 31.3745 97.7466 32.5781C97.2973 33.3324 96.2063 35.4668 93.8477 39.4146C92.885 41.0194 92.0186 41.4848 90.9115 41.4848C90.2858 41.4848 89.7884 41.0515 89.7884 40.4095C89.7884 39.2701 92.4679 35.4668 93.4145 33.5571C94.2007 32.0004 93.3503 31.0375 90.7671 30.9252C90.7671 30.9252 90.4302 31.9041 89.7563 33.1238C88.0876 36.0766 85.1514 42.0464 82.5201 42.0464C81.9746 42.0464 81.5895 41.6934 81.5895 41.228C81.5895 40.6824 81.9746 39.7837 82.8089 38.3233L84.6701 35.0816C84.9108 34.6644 85.0391 34.2311 85.0391 33.8138C85.0391 33.0435 84.5899 32.4016 83.563 32.193C82.1992 31.9362 80.9958 31.6153 79.7122 31.1178C80.1134 30.0747 79.5999 28.502 78.204 28.502C76.5033 28.502 75.0913 30.0907 75.0913 31.4387C75.0913 32.0807 75.5727 32.5621 75.685 32.6744C75.3481 34.5199 71.0641 42.0785 68.3044 42.1106C67.823 42.0785 67.5824 41.8057 67.5824 41.2761C67.5824 39.896 69.7645 37.4086 69.957 36.1408C70.1495 34.9853 69.0906 34.536 67.1652 34.7767C67.1652 34.7767 66.1383 36.4617 65.0313 38.1789C63.7637 40.1367 62.2716 41.4848 61.2126 41.4848C60.5548 41.4848 60.2499 40.907 60.2499 40.217C60.2499 37.7616 63.7798 33.0114 67.0529 33.0114C68.8499 33.0114 70.0854 33.9262 70.0854 33.9262C70.0854 33.9262 71.5615 32.9633 71.5615 31.7597C71.5615 30.7326 70.1656 30.0105 67.791 30.0105C63.5391 30.0105 59.913 33.5892 57.8913 36.6704C56.6559 38.0344 52.388 42.4797 48.9383 42.4797C47.6547 42.4797 46.8685 41.7094 46.8685 40.4416C46.8685 36.558 51.4092 31.872 53.2865 31.872C53.6234 31.872 53.7678 32.193 53.7678 32.4979C53.7678 34.6002 51.5215 36.205 49.901 36.895C49.0025 37.2802 48.0238 37.6814 48.0238 37.6814C48.1361 39.3022 49.2432 39.4467 50.607 38.9652C53.7357 37.874 56.7842 35.3384 56.7842 32.7547C56.7842 30.5079 54.9872 29.7056 53.3025 29.7056C48.0719 29.7056 42.0391 35.4828 42.0391 40.907C42.0391 43.6994 44.0126 45.3844 47.3178 45.3844C49.2432 45.3844 52.5324 44.5981 56.0943 41.6613C55.9178 43.6833 56.8965 45.1597 58.9984 45.1597C61.1645 45.1597 63.154 43.7796 64.2611 42.2069C64.213 44.1648 65.4163 45.3202 67.4219 45.3202C72.476 45.3202 77.0328 37.2 78.3966 33.7015C79.5518 34.1508 79.9208 34.2792 81.1723 34.6002L78.4126 39.3343C77.6745 40.6021 77.3537 41.581 77.3537 42.4637C77.3537 43.571 78.2361 45.3363 80.5787 45.3363C83.4988 45.3202 85.6488 43.2019 86.2104 42.5118C86.3708 43.6673 87.6223 44.3734 88.7936 44.3734C89.3712 44.3734 89.9649 44.245 90.5264 44.0524C86.3869 46.0263 82.5843 48.7063 82.5843 51.7555C82.5843 54.0824 84.4134 55.1737 86.1462 55.1737C90.8313 55.1737 92.6925 49.3001 94.7783 44.4857C96.6716 43.234 98.2921 42.1267 99.704 41.1317C99.3511 41.6934 99.2708 42.3834 99.8645 43.1698C100.795 44.3573 103.009 45.3202 105.127 45.3202C108.882 45.3202 111.786 42.9451 111.786 39.6553C111.802 36.2852 109.138 34.9211 109.138 33.3324ZM86.5634 52.2208C86.1141 52.2208 85.8734 51.8838 85.8734 51.4024C85.8734 48.8989 90.7029 46.0263 90.7029 46.0263C89.4354 49.268 88.0074 52.2208 86.5634 52.2208ZM105.015 42.56C103.442 42.56 102.528 40.8428 101.998 39.4146C104.004 37.9221 105.496 36.6704 106.764 35.4668C106.956 36.2852 107.646 37.2802 107.646 39.1739C107.63 41.3724 106.539 42.56 105.015 42.56Z" fill="#08A08E"/>
</svg>

