<svg width="124" height="23" viewBox="0 0 124 23" fill="none" xmlns="http://www.w3.org/2000/svg">
<path d="M11.4556 22.7839L6.78363 14.3039H5.47163V22.7839H-0.000374913V0.319935H9.18363C10.9543 0.319935 12.4583 0.629268 13.6956 1.24793C14.9543 1.8666 15.893 2.71993 16.5116 3.80793C17.1303 4.8746 17.4396 6.06927 17.4396 7.39193C17.4396 8.88527 17.013 10.2186 16.1596 11.3919C15.3276 12.5653 14.0903 13.3973 12.4476 13.8879L17.6316 22.7839H11.4556ZM5.47163 10.4319H8.86363C9.86629 10.4319 10.613 10.1866 11.1036 9.69594C11.6156 9.20527 11.8716 8.51193 11.8716 7.61593C11.8716 6.7626 11.6156 6.0906 11.1036 5.59994C10.613 5.10927 9.86629 4.86394 8.86363 4.86394H5.47163V10.4319ZM26.3466 4.70394V9.24794H33.6746V13.4719H26.3466V18.3999H34.6346V22.7839H20.8746V0.319935H34.6346V4.70394H26.3466ZM43.6591 18.5599H50.8271V22.7839H38.1871V0.319935H43.6591V18.5599ZM64.0611 23.0079C61.9491 23.0079 60.0078 22.5173 58.2371 21.5359C56.4878 20.5546 55.0905 19.1893 54.0451 17.4399C53.0211 15.6693 52.5091 13.6853 52.5091 11.4879C52.5091 9.2906 53.0211 7.31727 54.0451 5.56793C55.0905 3.8186 56.4878 2.45327 58.2371 1.47194C60.0078 0.490602 61.9491 -6.48499e-05 64.0611 -6.48499e-05C66.1731 -6.48499e-05 68.1038 0.490602 69.8531 1.47194C71.6238 2.45327 73.0105 3.8186 74.0131 5.56793C75.0371 7.31727 75.5491 9.2906 75.5491 11.4879C75.5491 13.6853 75.0371 15.6693 74.0131 17.4399C72.9891 19.1893 71.6025 20.5546 69.8531 21.5359C68.1038 22.5173 66.1731 23.0079 64.0611 23.0079ZM64.0611 18.0159C65.8531 18.0159 67.2825 17.4186 68.3491 16.2239C69.4371 15.0293 69.9811 13.4506 69.9811 11.4879C69.9811 9.50394 69.4371 7.92527 68.3491 6.75193C67.2825 5.55727 65.8531 4.95993 64.0611 4.95993C62.2478 4.95993 60.7971 5.5466 59.7091 6.71993C58.6425 7.89327 58.1091 9.4826 58.1091 11.4879C58.1091 13.4719 58.6425 15.0613 59.7091 16.2559C60.7971 17.4293 62.2478 18.0159 64.0611 18.0159ZM89.2174 23.0079C87.1054 23.0079 85.164 22.5173 83.3934 21.5359C81.644 20.5546 80.2467 19.1893 79.2014 17.4399C78.1774 15.6693 77.6654 13.6853 77.6654 11.4879C77.6654 9.2906 78.1774 7.31727 79.2014 5.56793C80.2467 3.8186 81.644 2.45327 83.3934 1.47194C85.164 0.490602 87.1054 -6.48499e-05 89.2174 -6.48499e-05C91.3294 -6.48499e-05 93.26 0.490602 95.0094 1.47194C96.78 2.45327 98.1667 3.8186 99.1694 5.56793C100.193 7.31727 100.705 9.2906 100.705 11.4879C100.705 13.6853 100.193 15.6693 99.1694 17.4399C98.1454 19.1893 96.7587 20.5546 95.0094 21.5359C93.26 22.5173 91.3294 23.0079 89.2174 23.0079ZM89.2174 18.0159C91.0094 18.0159 92.4387 17.4186 93.5054 16.2239C94.5934 15.0293 95.1374 13.4506 95.1374 11.4879C95.1374 9.50394 94.5934 7.92527 93.5054 6.75193C92.4387 5.55727 91.0094 4.95993 89.2174 4.95993C87.404 4.95993 85.9534 5.5466 84.8654 6.71993C83.7987 7.89327 83.2654 9.4826 83.2654 11.4879C83.2654 13.4719 83.7987 15.0613 84.8654 16.2559C85.9534 17.4293 87.404 18.0159 89.2174 18.0159ZM116.774 22.7839L109.222 12.8639V22.7839H103.75V0.319935H109.222V10.1759L116.71 0.319935H123.142L114.438 11.3279L123.462 22.7839H116.774Z" fill="#007ADE"/>
</svg>

