<svg width="124" height="65" viewBox="0 0 124 65" fill="none" xmlns="http://www.w3.org/2000/svg">
<mask id="mask0_2138_1022" style="mask-type:luminance" maskUnits="userSpaceOnUse" x="0" y="0" width="124" height="65">
<path d="M124 0L0 0L0 64.0782H124V0Z" fill="white"/>
</mask>
<g mask="url(#mask0_2138_1022)">
<path d="M118.116 13.4017L122.88 0.360408C109.936 1.78245 95.6649 3.63542 83.0271 5.39828L79.7521 0L44.3145 5.75086L40.2756 12.5869C15.76 16.5553 0 19.5325 0 19.5325L8.44217 36.5657L1.5905 64.0743C1.5905 64.0743 33.7177 51.9928 58.9502 43.5819L65.9312 49.3093C65.9312 49.3093 71.161 39.876 71.3334 39.6449C91.0696 33.7334 124 26.917 124 26.917L118.112 13.4056L118.116 13.4017Z" fill="#27AAE1"/>
<path d="M116.035 13.5686L119.972 2.8543C111.471 3.58687 96.7297 5.9021 81.1616 8.3662L78.2314 2.58008L45.9122 8.18991L42.9153 14.3835C28.5616 16.5655 16.0688 18.6653 4.33594 21.0432L11.5402 35.7651L6.02045 59.0075C23.3514 53.3154 42.7155 46.4324 59.8192 41.0732L65.0765 45.6489L69.942 37.4927C86.6539 32.4744 104.204 28.6823 120.81 25.1996L116.035 13.5725V13.5686Z" fill="#1A345C"/>
<path d="M117.798 23.9469L113.861 13.6204L117.391 4.64941C117.391 4.64941 92.3033 7.85783 79.2385 10.9801L77.6519 7.28588C77.6519 7.28588 57.9117 9.63245 45.5834 18.2979L43.1546 16.1942L8.29688 22.9362L14.1222 35.5152L9.5348 55.083L57.6963 38.994L65.0416 45.7163L71.4466 34.5907C71.4466 34.5907 105.94 26.4541 117.802 23.9508" fill="#09213C"/>
<path d="M62.7891 39.914C64.2816 38.1042 66.8045 35.8712 68.4812 35.1504L64.6459 41.5751L62.793 39.918L62.7891 39.914Z" fill="#1A345C"/>
<path d="M20.9743 47.6377C18.1655 48.4683 16.148 48.3703 14.9453 47.6103L16.6455 41.6244C17.715 42.9642 19.9989 43.7046 21.2329 43.3246C22.7607 42.8545 23.7087 41.9652 23.9438 40.5941C24.1592 39.3405 23.7949 38.9214 21.5463 38.2319C18.8667 37.3935 16.7748 36.4808 17.1822 32.7983C17.6875 28.2501 20.0772 26.3815 23.5442 25.5628C25.8829 25.0182 27.1326 25.2572 28.5977 26.123L27.4225 31.772C26.1219 30.7377 24.4922 29.3862 23.0819 29.7623C21.9067 30.0796 21.3151 30.7221 21.272 31.7328C21.2211 32.9237 22.0046 33.4917 23.6695 33.9736C27.0386 34.949 28.5468 35.9715 28.0414 39.6148C27.4577 43.8143 24.8252 46.4938 20.9782 47.6299" fill="#ED1C24"/>
<path d="M39.2721 41.9196L36.2674 34.4177L34.6808 36.9248L34.0697 43.4553L30.1875 44.6501L32.0914 24.0481L36.1225 23.0726L35.433 29.5051L39.7422 22.1951L44.5607 21.0708L39.4014 29.4033L44.1847 40.4662L39.2721 41.9196Z" fill="#ED1C24"/>
<path d="M108.409 22.6874L106.305 18.4134L105.063 19.6827L104.378 24.842L100.527 25.7548L99.2891 24.7362L101.021 9.78319L105.028 7.62466L106.427 8.7098L105.733 13.7869L113.705 6.21045L114.841 7.55806L109.807 13.5009L114.442 22.562L109.678 23.6471L108.409 22.6874Z" fill="#ED1C24"/>
<path d="M54.1481 18.9137L51.7389 24.7233L49.6626 19.8539L44.7188 21.037L48.2602 29.8748L47.1476 39.6254L51.3158 38.4384L52.4244 29.2206L58.9353 17.8442L54.1481 18.9137Z" fill="#ED1C24"/>
<path d="M91.7695 21.0946L94.6097 27.0609L98.6682 26.0972L95.0681 19.1084C93.9868 19.794 92.8508 20.4051 91.7656 21.0946" fill="#ED1C24"/>
<path d="M97.7607 11.6287C96.7735 10.8373 95.2927 10.6258 93.2713 10.9901C93.2556 10.9901 93.236 10.998 93.2165 11.0019L87.9004 12.0087L85.8438 29.2613L89.6241 28.3289L90.2588 22.7817C90.2588 22.7817 91.4653 22.3587 91.8257 22.2372C95.8294 20.8818 98.4385 19.2834 98.9516 15.0134C99.1436 13.4268 98.6774 12.3612 97.7568 11.6248M95.183 15.9026C95.0067 17.3286 94.3094 18.0298 92.4721 18.6841C92.0843 18.8212 90.7876 19.2325 90.7876 19.2325L91.2969 14.4493L92.86 14.1398C92.86 14.1398 92.8756 14.1398 92.8874 14.1359C93.7492 13.9713 94.376 14.0418 94.7599 14.3474C95.1321 14.6451 95.277 15.1701 95.1869 15.9026" fill="#ED1C24"/>
<path d="M81.0895 13.2642L76.98 14.1221L70.3203 33.2433L74.2025 32.2248L75.5071 28.4562L79.6322 26.8774L80.2119 30.6774L84.1216 29.6706L81.0934 13.2563L81.0895 13.2642ZM79.119 23.43L76.9996 24.2331L78.594 19.1757L79.119 23.43Z" fill="#ED1C24"/>
<path d="M70.4758 17.0423C69.4886 16.1844 67.9373 15.9493 65.9198 16.3685C65.9041 16.3685 65.8846 16.3763 65.865 16.3802L60.5137 17.5163L58.4609 36.4495L62.3314 35.3878L62.966 29.4411C62.966 29.4411 64.0825 28.9945 64.4429 28.8574C68.4466 27.3453 71.0517 25.5706 71.5649 20.8736C71.7569 19.1264 71.3965 17.8375 70.4719 17.0384M67.7924 21.7433C67.62 23.3103 66.9188 24.082 65.0815 24.8185C64.6976 24.9752 63.397 25.4335 63.397 25.4335L63.9062 20.1841L65.4693 19.8315C65.4693 19.8315 65.485 19.8315 65.4967 19.8276C66.3586 19.6396 66.9854 19.7101 67.3693 20.0431C67.7414 20.3682 67.8864 20.9402 67.7963 21.7472" fill="#ED1C24"/>
<path d="M20.5648 46.9612C18.6061 47.5919 16.0636 47.7212 14.3047 46.4598L16.0127 40.9557C17.0822 42.3033 19.3661 43.0476 20.6001 42.6716C22.1279 42.2054 23.0759 41.3122 23.311 39.9411C23.5264 38.6875 23.1621 38.2644 20.9135 37.571C18.2339 36.7287 16.142 35.8081 16.5494 32.114C17.0548 27.5579 19.4444 25.6854 22.9114 24.8744C25.2501 24.3338 26.4998 24.5767 27.9649 25.4464L26.9856 30.4373C25.3872 29.3208 24.2355 28.5451 22.8252 28.9212C21.65 29.2346 20.7411 29.9593 20.6392 31.0562C20.5139 32.3764 20.9291 32.6428 23.0367 33.3049C26.394 34.3312 27.914 35.3185 27.4087 38.9695C26.8249 43.1769 24.3765 45.735 20.5648 46.9573" fill="#09213C"/>
<path d="M38.6471 41.3079L35.6424 33.7824L33.8756 36.5717L33.2253 42.918L29.5625 44.0266L31.4664 23.3815L35.2624 22.4688L34.569 28.913L39.1172 21.5364L43.9357 20.4199L38.416 29.2264L43.0778 40.0661L38.6471 41.3079Z" fill="#09213C"/>
<path d="M108.691 23.2123L105.902 17.5515L104.421 19.2948L103.767 24.321L99.1953 25.4296L101.252 8.26321L105.048 7.62466L105.816 8.14177L105.122 13.2345L113.725 6.21045L114.497 6.71189L109.024 13.3716L113.459 22.1546L108.691 23.2123Z" fill="#09213C"/>
<path d="M53.5231 18.2706L50.7339 24.2644L48.6576 19.3832L44.0938 20.3821L47.6352 29.2513L46.5226 39.0254L50.6908 37.8423L51.7994 28.601L58.3103 17.209L53.5231 18.2706Z" fill="#09213C"/>
<path d="M90.8789 20.6268L93.7191 26.6166L97.7776 25.6568L94.1774 18.6406C93.0962 19.3262 91.9601 19.9373 90.875 20.6268" fill="#09213C"/>
<path d="M97.1399 11.0762C96.1527 10.281 94.5662 10.0499 92.5447 10.4142C92.5291 10.4142 92.5095 10.422 92.4899 10.422L87.1739 11.421L85.1172 28.7206L88.9015 27.796L89.5361 22.3586C89.5361 22.3586 90.7427 21.9394 91.1031 21.814C95.1068 20.4625 97.7158 18.8642 98.229 14.5824C98.421 12.988 98.0605 11.8127 97.136 11.0723M94.4565 15.3424C94.2802 16.7723 93.5829 17.4735 91.7456 18.1277C91.3577 18.2648 90.061 18.6761 90.061 18.6761L90.5703 13.8812L92.1334 13.5717C92.1334 13.5717 92.1491 13.5717 92.1608 13.5678C93.0227 13.4032 93.6495 13.4777 94.0334 13.7832C94.4055 14.0809 94.5505 14.6059 94.4604 15.3424" fill="#09213C"/>
<path d="M80.2373 12.7339L76.3394 13.5135L69.6797 32.6739L73.5619 31.6631L74.8664 27.8867L78.9915 26.3119L79.5713 30.1275L83.2694 29.199L80.2412 12.7339H80.2373ZM78.4784 22.8488L76.359 23.648L77.9534 18.5788L78.4784 22.8449V22.8488Z" fill="#09213C"/>
<path d="M69.8352 16.4201C68.848 15.5583 67.2967 15.3193 65.2792 15.7385C65.2635 15.7424 65.2439 15.7463 65.2243 15.7502L59.8731 16.8785L57.8203 35.8548L61.6908 34.8009L62.3254 28.8425C62.3254 28.8425 63.4419 28.3959 63.8023 28.2588C67.806 26.7505 70.4111 24.9759 70.9243 20.2671C71.1162 18.516 70.7558 17.2232 69.8313 16.4201M67.1517 21.1289C66.9794 22.6999 66.2781 23.4755 64.4409 24.2081C64.0569 24.3609 62.7563 24.8231 62.7563 24.8231L63.2656 19.562L64.8287 19.2094C64.8287 19.2094 64.8443 19.2055 64.8561 19.2055C65.7179 19.0174 66.3447 19.0919 66.7287 19.4248C67.1008 19.75 67.2458 20.3259 67.1557 21.1329" fill="#09213C"/>
<path d="M19.9779 46.4227C17.1299 47.1044 15.273 46.6578 14.0469 45.177L15.2378 40.3271C16.3073 41.6786 18.5912 42.4308 19.8252 42.0547C21.353 41.5925 22.301 40.6993 22.5361 39.3242C22.7515 38.0667 22.3872 37.6436 20.1386 36.9424C17.459 36.0923 15.4963 34.3765 15.5943 31.3561C15.7353 26.8314 18.6342 24.8531 22.1404 24.2224C24.107 23.8698 25.7288 23.9325 27.1939 24.8061L26.3203 29.08C24.722 27.9596 23.4645 27.9048 22.0542 28.277C20.879 28.5904 19.9701 29.3112 19.8682 30.412C19.7429 31.7322 20.4402 32.3746 22.5713 32.9583C25.7954 33.8398 27.0764 35.6418 26.7082 38.5682C26.1715 42.7912 23.68 45.5295 19.9858 46.4149" fill="white"/>
<path d="M37.8776 40.7236L34.869 33.1746L33.1061 35.9638L32.4558 42.3219L28.7891 43.4266L30.693 22.7423L34.489 21.8335L33.7995 28.2934L38.3477 20.909L43.1662 19.7964L37.4154 29.0181L41.9361 39.5483L37.8776 40.7236Z" fill="white"/>
<path d="M108.409 22.6325L105.408 16.6192L103.641 18.8051L102.983 23.8469L99.3203 24.6892L101.24 8.26321L105.036 7.62466L104.339 12.7291L108.895 6.97827L113.713 6.21045L108.103 13.1953L112.467 21.7433L108.409 22.6325Z" fill="white"/>
<path d="M52.738 17.6661L49.5531 23.7147L47.4768 18.8179L43.3047 19.762L46.85 28.6586L45.7374 38.4523L49.9017 37.277L51.0104 28.0161L57.5251 16.6084L52.738 17.6661Z" fill="white"/>
<path d="M89.9024 20.2034L92.7425 26.2168L96.801 25.2648L93.2009 18.2212C92.1197 18.9068 90.9836 19.514 89.8984 20.2034" fill="white"/>
<path d="M96.4798 10.5512C95.4926 9.75202 93.906 9.51697 91.8846 9.87738C91.8689 9.87738 91.8493 9.88521 91.8297 9.88521L86.5137 10.8763L84.4609 28.2151L88.2452 27.2945L88.8799 21.8453C88.8799 21.8453 90.0864 21.4261 90.4468 21.3047C94.4505 19.961 97.0596 18.3626 97.5727 14.0691C97.7647 12.4747 97.4043 11.2916 96.4798 10.5473M93.7924 14.8252C93.6161 16.2589 92.9188 16.9602 91.0815 17.6105C90.6936 17.7476 89.397 18.155 89.397 18.155L89.9062 13.3483L91.4693 13.0427C91.4693 13.0427 91.485 13.0427 91.4967 13.0388C92.3586 12.8742 92.9854 12.9487 93.3693 13.2582C93.7414 13.5598 93.8864 14.0847 93.7963 14.8252" fill="white"/>
<path d="M79.4873 12.19L75.5894 12.9617L68.9297 32.1573L72.8119 31.1506L74.1164 27.3702L78.2415 25.7993L78.8213 29.6227L82.5194 28.7021L79.4912 12.186L79.4873 12.19ZM77.7323 22.3245L75.6129 23.1236L77.2073 18.0466L77.7323 22.3245Z" fill="white"/>
<path d="M69.054 15.8537C68.0668 14.9879 66.5154 14.7411 64.4979 15.1603C64.4823 15.1603 64.4627 15.1681 64.4431 15.1721L59.0918 16.2925L57.0391 35.3118L60.9252 34.2737L61.5442 28.2917C61.5442 28.2917 62.6606 27.8451 63.021 27.7119C67.0247 26.2115 69.6298 24.4369 70.143 19.7163C70.335 17.9613 69.9707 16.6646 69.05 15.8576M66.3705 20.5664C66.1981 22.1412 65.4969 22.913 63.6596 23.6456C63.2757 23.7983 61.9751 24.2567 61.9751 24.2567L62.4844 18.9838L64.0474 18.6351C64.0474 18.6351 64.0631 18.6312 64.0749 18.6273C64.9367 18.4392 65.5635 18.5176 65.9474 18.8506C66.3196 19.1757 66.4645 19.7555 66.3744 20.5664" fill="white"/>
<path d="M78.1045 25.2993C77.9674 24.4414 77.0703 23.9282 76.2633 24.2455L73.854 25.1857C73.1019 25.4834 72.4829 26.1102 72.2087 26.8624L71.2881 29.4088C70.9864 30.251 71.6093 30.9562 72.4672 30.7368L73.7717 26.9564L78.1084 25.3032L78.1045 25.2993Z" fill="#E6E7E8"/>
<path d="M75.0687 23.1271C74.3478 22.0655 74.1755 20.7218 74.6142 19.5152L76.5965 14.0347L77.0039 17.2274L75.0687 23.1271Z" fill="#E6E7E8"/>
<path d="M78.1517 14.5518L80.3259 27.1426C80.51 28.2317 81.9203 28.3453 81.9203 28.3453L79.0762 12.6479C78.4181 13.0279 78.0146 13.7409 78.1517 14.5518Z" fill="#E6E7E8"/>
<path d="M46.3082 22.4284L47.8595 26.1265L49.0975 24.1325L47.1583 19.6274C46.3905 20.0819 45.9596 21.5862 46.3121 22.4245" fill="#E6E7E8"/>
<path d="M52.5065 19.9895L48.9298 26.2653C48.4793 27.084 48.1894 27.9655 48.0876 28.8547L47.4568 34.445C47.2296 36.4468 49.0787 36.8973 49.0787 36.8973L50.203 27.7226L56.04 17.5332L55.711 17.5998C54.4065 17.8662 53.2155 18.7555 52.5104 19.9934" fill="#E6E7E8"/>
<path d="M41.5395 20.8853L36.5996 28.8808L40.9558 38.9252L41.0498 39.1956C39.8785 39.5325 38.6915 38.7764 38.2371 37.7069L38.1666 37.5424L34.5703 28.9944L37.9002 23.5766C38.7699 22.1976 40.0979 21.2182 41.5356 20.8892" fill="#E6E7E8"/>
<path d="M33.6339 30.4683L34.4056 32.3996L32.4626 35.514L31.8123 41.872C31.1306 41.8015 30.3197 40.7281 30.4137 39.7527L30.7663 35.8078C30.8407 35.0321 31.1189 34.2565 31.5733 33.5827L33.6339 30.4683Z" fill="#E6E7E8"/>
<path d="M33.6718 22.7114L32.9823 29.1714L30.9766 32.1095L31.6151 25.2147C31.7248 24.0199 32.5984 22.9582 33.6757 22.7114" fill="#E6E7E8"/>
<path d="M107.459 13.0823L111.678 21.3835C110.503 21.6381 109.414 21.2425 108.964 20.3924L108.893 20.2592L105.289 13.3331L108.905 8.8828C109.778 7.81333 111.103 7.07293 112.544 6.8418L107.455 13.0823H107.459Z" fill="#E6E7E8"/>
<path d="M104.295 14.4927L105.066 16.0362L103.053 18.5081L102.418 23.3148C101.396 23.1581 100.934 22.2219 101.028 21.4462L101.357 18.7196C101.431 18.1046 101.713 17.4895 102.164 16.9607L104.299 14.4927H104.295Z" fill="#E6E7E8"/>
<path d="M104.371 8.25879L103.791 12.235L101.781 14.5307L102.31 10.2019C102.424 9.25775 103.293 8.43508 104.371 8.25879Z" fill="#E6E7E8"/>
<path d="M21.6023 33.1604C19.1813 32.6707 18.9188 30.9196 19.0755 29.952C19.5378 27.1157 23.3652 26.5125 25.5707 28.0677C25.5707 28.0677 23.9019 24.7692 20.1293 26.3832C18.057 27.2685 17.4498 28.8629 17.5791 30.6454C17.7083 32.4318 18.8562 33.5757 21.6023 33.1604Z" fill="#E6E7E8"/>
<path d="M25.315 35.5708C25.3032 37.51 25.2601 39.2689 23.2622 41.6155C19.8501 45.6231 15.4821 42.8847 15.4821 42.8847L14.9062 44.8356C16.105 46.2381 20.6179 46.6886 24.1123 43.0845C26.3962 40.7262 26.3923 36.8244 25.3189 35.5708" fill="#E6E7E8"/>
<path d="M86.3069 24.8357L86.7378 21.9093C86.8828 20.9691 87.6428 20.119 88.63 19.7939L89.5858 19.4727L90.2166 20.8908L88.4419 21.5097L87.8073 26.959C87.8073 26.959 86.0327 26.6142 86.3108 24.8396" fill="#E6E7E8"/>
<path d="M88.8597 18.2601L88.8362 18.2366C88.0449 17.3982 87.661 16.2543 87.7903 15.1104L88.1742 11.7257C88.1742 11.7257 90.2896 11.334 90.8772 11.2243C92.6088 10.903 93.4432 11.4202 93.8232 13.2026C93.8232 13.2026 93.263 12.1606 91.2964 12.5327C90.3327 12.7168 89.4787 12.8814 89.4787 12.8814L88.8637 18.264L88.8597 18.2601Z" fill="#E6E7E8"/>
<path d="M61.3558 23.7242L61.3323 23.7006C60.5253 22.878 60.1218 21.7419 60.2275 20.5941L60.5488 17.2015C60.5488 17.2015 62.6564 16.7706 63.2401 16.6531C64.9638 16.3005 65.806 16.802 66.2252 18.5766C66.2252 18.5766 65.6454 17.5463 63.6867 17.9537C62.7269 18.1574 61.8768 18.3337 61.8768 18.3337L61.3636 23.7242H61.3558Z" fill="#E6E7E8"/>
<path d="M93.5304 24.0207L91.1094 18.9084C91.1094 18.9084 92.6764 18.3247 93.6753 17.2513C96.5508 14.1565 95.5636 11.1322 93.3541 10.1411C93.3541 10.1411 95.8103 10.1646 96.4528 11.4731C97.2128 13.0205 96.8015 14.2192 96.7035 14.7324C96.1002 17.9604 93.3188 19.453 93.3188 19.453L96.0885 25.004C94.9798 25.2783 93.9417 24.8787 93.5304 24.0207Z" fill="#E6E7E8"/>
<path d="M58.9046 31.7242L59.3238 28.2572C59.4687 27.3171 60.2287 26.467 61.2159 26.1418L62.2815 25.7305L62.9122 27.1486L61.0279 27.8577L60.4011 33.8475C60.4011 33.8475 58.6264 33.5028 58.9046 31.7281" fill="#E6E7E8"/>
<path d="M61.4531 26.0479C61.4531 26.0479 65.3275 24.6847 66.4009 23.4428C69.2607 20.1404 68.2186 16.7596 66.0091 15.698C66.0091 15.698 68.0854 15.365 69.1118 17.1239C70.0285 18.6948 69.3547 21.8288 68.2617 23.3684C66.5576 25.762 62.9104 27.1448 62.9104 27.1448L61.4531 26.0479Z" fill="#E6E7E8"/>
</g>
</svg>

