<svg width="84" height="84" viewBox="0 0 84 84" fill="none" xmlns="http://www.w3.org/2000/svg">
<foreignObject x="-44" y="-44" width="164" height="164"><div xmlns="http://www.w3.org/1999/xhtml" style="backdrop-filter:blur(25px);clip-path:url(#bgblur_0_2138_987_clip_path);height:100%;width:100%"></div></foreignObject><g filter="url(#filter0_d_2138_987)" data-figma-bg-blur-radius="50">
<circle cx="38" cy="38" r="32" fill="white" fill-opacity="0.5" shape-rendering="crispEdges"/>
</g>
<g clip-path="url(#clip1_2138_987)">
<path d="M53.5391 54.7093C54.0058 54.7093 54.2391 54.7093 54.4174 54.6185C54.5742 54.5386 54.7017 54.4111 54.7816 54.2543C54.8724 54.076 54.8724 53.8427 54.8724 53.376V36.0426C54.8724 35.5759 54.8724 35.3426 54.7816 35.1643C54.7017 35.0075 54.5742 34.88 54.4174 34.8001C54.2391 34.7093 54.0058 34.7093 53.5391 34.7093L49.5391 34.7093C49.0724 34.7093 48.839 34.7093 48.6607 34.8001C48.5039 34.88 48.3765 35.0075 48.2966 35.1643C48.2057 35.3426 48.2057 35.5759 48.2057 36.0426V40.0426C48.2057 40.5094 48.2057 40.7427 48.1149 40.921C48.035 41.0778 47.9075 41.2053 47.7507 41.2851C47.5725 41.376 47.3391 41.376 46.8724 41.376H42.8724C42.4057 41.376 42.1723 41.376 41.9941 41.4668C41.8373 41.5467 41.7098 41.6742 41.6299 41.831C41.5391 42.0092 41.5391 42.2426 41.5391 42.7093V46.7093C41.5391 47.176 41.5391 47.4094 41.4482 47.5876C41.3683 47.7444 41.2409 47.8719 41.0841 47.9518C40.9058 48.0426 40.6724 48.0426 40.2057 48.0426H36.2057C35.739 48.0426 35.5057 48.0426 35.3274 48.1335C35.1706 48.2134 35.0431 48.3408 34.9632 48.4977C34.8724 48.6759 34.8724 48.9093 34.8724 49.376V53.376C34.8724 53.8427 34.8724 54.076 34.9632 54.2543C35.0431 54.4111 35.1706 54.5386 35.3274 54.6185C35.5057 54.7093 35.739 54.7093 36.2057 54.7093L53.5391 54.7093Z" stroke="#4C66D0" stroke-width="2" stroke-linecap="round" stroke-linejoin="round"/>
<path d="M34.8724 29.376C34.8724 28.9093 34.8724 28.6759 34.9632 28.4977C35.0431 28.3408 35.1706 28.2134 35.3274 28.1335C35.5057 28.0426 35.739 28.0426 36.2057 28.0426H40.2057C40.6724 28.0426 40.9058 28.0426 41.0841 28.1335C41.2409 28.2134 41.3683 28.3408 41.4482 28.4977C41.5391 28.6759 41.5391 28.9093 41.5391 29.376V33.376C41.5391 33.8427 41.5391 34.076 41.4482 34.2543C41.3683 34.4111 41.2409 34.5386 41.0841 34.6185C40.9058 34.7093 40.6724 34.7093 40.2057 34.7093H36.2057C35.739 34.7093 35.5057 34.7093 35.3274 34.6185C35.1706 34.5386 35.0431 34.4111 34.9632 34.2543C34.8724 34.076 34.8724 33.8427 34.8724 33.376V29.376Z" stroke="#4C66D0" stroke-width="2" stroke-linecap="round" stroke-linejoin="round"/>
<path d="M23.2057 39.376C23.2057 38.9093 23.2057 38.6759 23.2966 38.4977C23.3765 38.3408 23.5039 38.2134 23.6607 38.1335C23.839 38.0426 24.0724 38.0426 24.5391 38.0426H28.5391C29.0058 38.0426 29.2391 38.0426 29.4174 38.1335C29.5742 38.2134 29.7017 38.3408 29.7816 38.4977C29.8724 38.6759 29.8724 38.9093 29.8724 39.376V43.376C29.8724 43.8427 29.8724 44.076 29.7816 44.2543C29.7017 44.4111 29.5742 44.5386 29.4174 44.6185C29.2391 44.7093 29.0058 44.7093 28.5391 44.7093H24.5391C24.0724 44.7093 23.839 44.7093 23.6607 44.6185C23.5039 44.5386 23.3765 44.4111 23.2966 44.2543C23.2057 44.076 23.2057 43.8427 23.2057 43.376V39.376Z" stroke="#4C66D0" stroke-width="2" stroke-linecap="round" stroke-linejoin="round"/>
<path d="M21.5391 22.7093C21.5391 22.2426 21.5391 22.0092 21.6299 21.831C21.7098 21.6742 21.8373 21.5467 21.9941 21.4668C22.1723 21.376 22.4057 21.376 22.8724 21.376H26.8724C27.3391 21.376 27.5725 21.376 27.7507 21.4668C27.9075 21.5467 28.035 21.6742 28.1149 21.831C28.2057 22.0092 28.2057 22.2426 28.2057 22.7093V26.7093C28.2057 27.176 28.2057 27.4094 28.1149 27.5876C28.035 27.7444 27.9075 27.8719 27.7507 27.9518C27.5725 28.0426 27.3391 28.0426 26.8724 28.0426H22.8724C22.4057 28.0426 22.1723 28.0426 21.9941 27.9518C21.8373 27.8719 21.7098 27.7444 21.6299 27.5876C21.5391 27.4094 21.5391 27.176 21.5391 26.7093V22.7093Z" stroke="#4C66D0" stroke-width="2" stroke-linecap="round" stroke-linejoin="round"/>
</g>
<defs>
<filter id="filter0_d_2138_987" x="-44" y="-44" width="164" height="164" filterUnits="userSpaceOnUse" color-interpolation-filters="sRGB">
<feFlood flood-opacity="0" result="BackgroundImageFix"/>
<feColorMatrix in="SourceAlpha" type="matrix" values="0 0 0 0 0 0 0 0 0 0 0 0 0 0 0 0 0 0 127 0" result="hardAlpha"/>
<feOffset dx="4" dy="4"/>
<feGaussianBlur stdDeviation="5"/>
<feComposite in2="hardAlpha" operator="out"/>
<feColorMatrix type="matrix" values="0 0 0 0 0.298039 0 0 0 0 0.4 0 0 0 0 0.815686 0 0 0 0.25 0"/>
<feBlend mode="normal" in2="BackgroundImageFix" result="effect1_dropShadow_2138_987"/>
<feBlend mode="normal" in="SourceGraphic" in2="effect1_dropShadow_2138_987" result="shape"/>
</filter>
<clipPath id="bgblur_0_2138_987_clip_path" transform="translate(44 44)"><circle cx="38" cy="38" r="32"/>
</clipPath><clipPath id="clip1_2138_987">
<rect width="40" height="40" fill="white" transform="translate(18.2031 18.043)"/>
</clipPath>
</defs>
</svg>

