<svg width="120" height="74" viewBox="0 0 120 74" fill="none" xmlns="http://www.w3.org/2000/svg">
<path d="M76.967 13.9532H56.1797L65.0716 5H85.9301L76.967 13.9532Z" fill="black"/>
<path d="M53.0485 13.9532H34L42.9472 5H61.9957L53.0485 13.9532Z" fill="black"/>
<path d="M54.6094 15.5095V52.7212L65.09 42.2349V5.03906L54.6094 15.5095Z" fill="black"/>
<path d="M50.0702 54.2461L46.0312 58.2841L49.0268 58.292L53.0658 54.2619L50.0702 54.2461Z" fill="black"/>
<path d="M36.4771 61.6738L34.6513 61.6659C34.509 61.6659 34.4062 61.5474 34.4062 61.4209L34.4141 60.0301C34.4141 59.9037 34.5169 59.7852 34.6592 59.7852L40.3263 59.8089C40.4686 59.8089 40.5713 59.9274 40.5713 60.0538L40.5634 61.4446C40.5634 61.5711 40.4607 61.6896 40.3184 61.6896L38.4926 61.6817L38.4689 68.4934C38.4689 68.6199 38.3503 68.7384 38.2238 68.7384L36.6905 68.7305C36.564 68.7305 36.4455 68.612 36.4455 68.4855L36.4771 61.6738Z" fill="black"/>
<path d="M41.5347 68.4242L45.5657 59.8502C45.6052 59.7712 45.6921 59.708 45.787 59.708H45.9134C46.0004 59.708 46.0952 59.7712 46.1268 59.8502L50.0867 68.4558C50.1658 68.6217 50.063 68.7877 49.8654 68.7877L48.4506 68.7798C48.2214 68.7798 48.1186 68.7008 48.008 68.4558L47.5495 67.4443L44.0797 67.4285L43.6134 68.4479C43.5502 68.598 43.4079 68.7561 43.155 68.7561L41.7481 68.7482C41.5584 68.7561 41.4556 68.5901 41.5347 68.4242ZM46.7908 65.7137L45.8265 63.6038H45.8107L44.8464 65.7058L46.7908 65.7137Z" fill="black"/>
<path d="M52.5082 60.1024C52.5082 59.976 52.6109 59.8574 52.7532 59.8574L54.2708 59.8653C54.3972 59.8653 54.5158 59.9839 54.5158 60.1103L54.4921 66.922L57.5272 66.9378C57.6694 66.9378 57.7722 67.0564 57.7722 67.1828L57.7643 68.5736C57.7643 68.7 57.6615 68.8186 57.5193 68.8186L52.7216 68.8028C52.5793 68.8028 52.4766 68.6842 52.4766 68.5578L52.5082 60.1024Z" fill="black"/>
<path d="M59.5972 68.4877L63.6282 59.9137C63.6677 59.8347 63.7546 59.7715 63.8495 59.7715H63.9759C64.0629 59.7715 64.1577 59.8347 64.1893 59.9137L68.1492 68.5193C68.2282 68.6852 68.1255 68.8512 67.9279 68.8512L66.5131 68.8433C66.2839 68.8433 66.1811 68.7642 66.0705 68.5193L65.612 67.5078L62.1422 67.492L61.6759 68.5114C61.6126 68.6615 61.4704 68.8196 61.2175 68.8196L59.8106 68.8117C59.6209 68.8196 59.5181 68.6536 59.5972 68.4877ZM64.8533 65.7772L63.889 63.6673H63.8732L62.9089 65.7693L64.8533 65.7772Z" fill="black"/>
<path d="M68.2142 60.2528C68.1352 60.0868 68.238 59.9209 68.4356 59.9209L70.1349 59.9288C70.2377 59.9288 70.3246 60.0078 70.3483 60.071L72.435 64.7334H72.514L74.6401 60.0868C74.6639 60.0236 74.7587 59.9446 74.8615 59.9446L76.5608 59.9525C76.7505 59.9525 76.8532 60.1185 76.7742 60.2844L72.7353 68.8583C72.6958 68.9374 72.6167 69.0006 72.5219 69.0006H72.3954C72.2927 69.0006 72.2136 68.9374 72.182 68.8583L68.2142 60.2528Z" fill="black"/>
<path d="M77.2502 68.5589L81.2812 59.985C81.3207 59.906 81.4076 59.8428 81.5025 59.8428H81.629C81.7159 59.8428 81.8107 59.906 81.8424 59.985L85.8022 68.5906C85.8813 68.7565 85.7785 68.9225 85.5809 68.9225L84.1661 68.9145C83.9369 68.9145 83.8342 68.8355 83.7235 68.5906L83.2651 67.5791L79.7952 67.5633L79.3289 68.5827C79.2657 68.7328 79.1234 68.8908 78.8705 68.8908L77.4636 68.8829C77.2739 68.8908 77.179 68.7249 77.2502 68.5589ZM82.5142 65.8485L81.5499 63.7386H81.5341L80.5698 65.8406L82.5142 65.8485Z" fill="black"/>
</svg>

